<?xml version="1.0" encoding="UTF-8"?>
<svg width="60px" height="60px" viewBox="0 0 60 60" version="1.1" xmlns="http://www.w3.org/2000/svg" xmlns:xlink="http://www.w3.org/1999/xlink">
    <!-- Generator: Sketch 53.1 (72631) - https://sketchapp.com -->
    <title>Slice 1</title>
    <desc>Created with Sketch.</desc>
    <defs>
        <linearGradient x1="50%" y1="0%" x2="50%" y2="100%" id="linearGradient-1">
            <stop stop-color="#36CEF9" offset="0%"></stop>
            <stop stop-color="#279DF4" offset="100%"></stop>
        </linearGradient>
        <path d="M0.375,22.25 L32.625,22.25 L32.625,18.6666667 L0.375,18.6666667 L0.375,22.25 Z M0.375,13.2916667 L32.625,13.2916667 L32.625,9.70833333 L0.375,9.70833333 L0.375,13.2916667 Z M0.375,0.75 L0.375,4.33333333 L32.625,4.33333333 L32.625,0.75 L0.375,0.75 Z" id="path-2"></path>
    </defs>
    <g id="Page-1" stroke="none" stroke-width="1" fill="none" fill-rule="evenodd">
        <g id="App-Icon-60-x-60" fill="url(#linearGradient-1)">
            <path d="M17.3062251,-6.99192208e-16 L42.6937749,6.99192208e-16 C48.7115264,-4.06250808e-16 50.8937085,0.626572875 53.0937085,1.80314575 C55.2937085,2.97971863 57.0202814,4.7062915 58.1968542,6.9062915 C59.3734271,9.1062915 60,11.2884736 60,17.3062251 L60,42.6937749 C60,48.7115264 59.3734271,50.8937085 58.1968542,53.0937085 C57.0202814,55.2937085 55.2937085,57.0202814 53.0937085,58.1968542 C50.8937085,59.3734271 48.7115264,60 42.6937749,60 L17.3062251,60 C11.2884736,60 9.1062915,59.3734271 6.9062915,58.1968542 C4.7062915,57.0202814 2.97971863,55.2937085 1.80314575,53.0937085 C0.626572875,50.8937085 2.70833872e-16,48.7115264 -4.66128138e-16,42.6937749 L4.66128138e-16,17.3062251 C-2.70833872e-16,11.2884736 0.626572875,9.1062915 1.80314575,6.9062915 C2.97971863,4.7062915 4.7062915,2.97971863 6.9062915,1.80314575 C9.1062915,0.626572875 11.2884736,4.06250808e-16 17.3062251,-6.99192208e-16 Z" id="App-Icon"></path>
        </g>
        <g id="Icon-/-Menu-/-Filled" transform="translate(14.000000, 19.000000)">
            <mask id="mask-3" fill="white">
                <use xlink:href="#path-2"></use>
            </mask>
            <g id="Mask" fill-rule="nonzero"></g>
            <g id="✱-/-Color-/-Icons-/-Selected-/-On-Surface-/-Inactive" mask="url(#mask-3)" fill="#000000" fill-opacity="0.54">
                <g transform="translate(-5.000000, -10.000000)" id="Rectangle">
                    <rect x="0" y="0" width="43" height="43"></rect>
                </g>
            </g>
        </g>
        <path d="M22.5,49 L38.5,12.5" id="Line" stroke="#FF0000" stroke-width="5" stroke-linecap="square"></path>
    </g>
</svg>